<?xml version="1.0" encoding="UTF-8" standalone="no"?>
<svg
  xmlns="http://www.w3.org/2000/svg"
  viewBox="0 0 24 24"
>
  <path
    d="M 12,2 C 17.53,2 22,6.47 22,12 22,17.53 17.53,22 12,22 6.47,22 2,17.53 2,12 2,6.47 6.47,2 12,2 M 9.53,8.06 c 0,0 -0.15,-2.62 2.51,-2.62 2.66,0 2.69,2.62 2.69,2.62 0,0.78 0,1.56 0,2.34 H 16.04 L 16,8.06 c 0,0 -0.32,-4.01 -3.94,-4.01 -3.62,0 -3.93,4.01 -3.93,4.01 l 0.02,0.99 c 0,0 0.01,0.28 0.11,0.35 0.29,0.22 1.09,0 1.09,0 L 9.45,9.07 M 17.03,17.28 V 10.4 H 7.26 l 0.01,6.88 z"
    fill="#676778"
  />
</svg>
